# xmcd
#
# Track frame offsets:
#	150
#	11739
#	22601
#	36591
#	50675
#	65409
#	79388
#	93773
#	109234
#	124657
#	138398
#	154898
#	165905
#	182692
#	197484
#	218243
#
# Disc length: 3022 seconds
#
# Revision: 0
# Processed by: cddbd v1.5.2PL0 Copyright (c) Steve Scherf et al.
# Submitted via: EasyCDDAExtractor 16.0.6.1
#
DISCID=d30bcc10
DTITLE=Μητσιάς Μανώλης - Τα τραγούδια μου-Μ. Μητσιάς 3
DYEAR=2010
DGENRE=Ποικίλη
TTITLE0=Το σακάκι [Ανέστης Δελιάς]
TTITLE1=Σού 'χει λάχει [Γιώργος Μπάτης]
TTITLE2=Τι κάθεσαι Μανώλη [Γιάννης Δραγάτσης]
TTITLE3=Πονώ, δε με λυπάσαι [Κώστας Σκαρβέλης]
TTITLE4=Πριν το χάραμα [Γ. Παπαϊωάννου-Χαρ. Βασιλειάδης]
TTITLE5=Μεσάνυχτα βαθιά σκοτεινιασμένα [Γιώργος Λαύκας]
TTITLE6=Έφυγες χωρίς να με ρωτήσεις [Γιάννης Παπαδόπουλος]
TTITLE7=Ηλιοβασίλεμα σωστό [Γ. Λαύκας-Κ. Μάνεσης]
TTITLE8=Μη χτυπάς σ' ένα σπίτι κλειστό [Λ. Κηλαηδόνης-Μ. Ελευθερίου]
TTITLE9=Προς κατεδάφισιν [Λ. Κηλαηδόνης-Κ. Μητροπούλου]
TTITLE10=Τι ήθελα και σ' αγαπούσα [παραδοσιακό]
TTITLE11=Η Αννούλα [παραδοσιακό]
TTITLE12=Κι αν αγέρας φυσά [Δ. Μούτσης-Γ. Σεφέρης]
TTITLE13=Πες της το μ' ένα γιουκαλίλι [Δ. Μούτσης-Γ. Σεφέρης]
TTITLE14=Το τραίνο φεύγει στις οχτώ [Μ. Θεοδωράκης-Μ. Ελευθερίου]
TTITLE15=Σ' αυτή τη γειτονιά [Μ. Θεοδωράκης-Μ. Ελευθερίου]
EXTD=
EXTT0=
EXTT1=
EXTT2=
EXTT3=
EXTT4=
EXTT5=
EXTT6=
EXTT7=
EXTT8=
EXTT9=
EXTT10=
EXTT11=
EXTT12=
EXTT13=
EXTT14=
EXTT15=
PLAYORDER=
